#N canvas 1225 307 447 330 10;
#X obj 41 138 sendOSC;
#X msg 41 17 send /ka 199;
#X msg 93 96 disconnect;
#X msg 65 55 connect 127.0.0.1 7000;
#X obj 150 190 print;
#X obj 214 134 unpackOSC;
#X obj 214 162 OSCroute /test1;
#X floatatom 203 231 5 0 0 0 - - -;
#X floatatom 246 232 10 0 0 0 - - -;
#X symbolatom 319 232 10 0 0 0 - - -;
#X obj 214 101 udpreceive 8000;
#X obj 214 196 unpack f f s;
#X connect 1 0 0 0;
#X connect 2 0 0 0;
#X connect 3 0 0 0;
#X connect 5 0 6 0;
#X connect 5 0 4 0;
#X connect 6 0 11 0;
#X connect 10 0 5 0;
#X connect 11 0 7 0;
#X connect 11 1 8 0;
#X connect 11 2 9 0;
