#N canvas 421 192 447 330 10;
#X obj 41 138 sendOSC;
#X msg 41 17 send /ka 199;
#X msg 93 96 disconnect;
#X msg 65 55 connect 127.0.0.1 7000;
#X obj 214 134 unpackOSC;
#X obj 214 162 OSCroute /test1;
#X floatatom 203 231 5 0 0 0 - - -;
#X floatatom 246 232 10 0 0 0 - - -;
#X symbolatom 319 232 10 0 0 0 - - -;
#X obj 214 101 udpreceive 8000;
#X obj 214 196 unpack f f s;
#X obj 150 190 print osc;
#X obj 29 294 print udp;
#X obj 29 253 bytes2any;
#X obj 29 220 udpreceive 6000;
#X connect 1 0 0 0;
#X connect 2 0 0 0;
#X connect 3 0 0 0;
#X connect 4 0 5 0;
#X connect 4 0 11 0;
#X connect 5 0 10 0;
#X connect 9 0 4 0;
#X connect 10 0 6 0;
#X connect 10 1 7 0;
#X connect 10 2 8 0;
#X connect 13 0 12 0;
#X connect 14 0 13 0;
